<svg xmlns="http://www.w3.org/2000/svg" xmlns:xlink="http://www.w3.org/1999/xlink" width="500" zoomAndPan="magnify" viewBox="0 0 375 149.999998" height="200" preserveAspectRatio="xMidYMid meet" version="1.0"><defs><g/><clipPath id="0d5e693c9a"><path d="M 1.265625 1.042969 L 102.902344 1.042969 L 102.902344 104.847656 L 1.265625 104.847656 Z M 1.265625 1.042969 " clip-rule="nonzero"/></clipPath><clipPath id="d2a993108a"><path d="M 23.292969 54.664062 L 80.855469 54.664062 L 80.855469 92.875 L 23.292969 92.875 Z M 23.292969 54.664062 " clip-rule="nonzero"/></clipPath><clipPath id="55883c8e98"><path d="M 23.292969 73.75 C 23.292969 84.292969 31.839844 92.839844 42.382812 92.839844 L 61.792969 92.839844 C 72.335938 92.839844 80.882812 84.292969 80.882812 73.75 C 80.882812 63.210938 72.335938 54.664062 61.792969 54.664062 L 42.382812 54.664062 C 31.839844 54.664062 23.292969 63.210938 23.292969 73.75 Z M 23.292969 73.75 " clip-rule="nonzero"/></clipPath><clipPath id="7e8dae2414"><path d="M 27.828125 14.097656 L 76.71875 14.097656 L 76.71875 65.15625 L 27.828125 65.15625 Z M 27.828125 14.097656 " clip-rule="nonzero"/></clipPath><clipPath id="e32c8981f1"><path d="M 44.894531 87.738281 L 59.34375 87.738281 L 59.34375 94.480469 L 44.894531 94.480469 Z M 44.894531 87.738281 " clip-rule="nonzero"/></clipPath><clipPath id="33c9cee92c"><path d="M 43.960938 70.660156 L 60.578125 70.660156 L 60.578125 87.757812 L 43.960938 87.757812 Z M 43.960938 70.660156 " clip-rule="nonzero"/></clipPath><clipPath id="78af8f8f16"><rect x="0" width="103" y="0" height="105"/></clipPath><clipPath id="af42ac1c4f"><rect x="0" width="248" y="0" height="81"/></clipPath></defs><g transform="matrix(1, 0, 0, 1, 7, 22)"><g clip-path="url(#78af8f8f16)"><g clip-path="url(#0d5e693c9a)"><path fill="#ff6600" d="M 50.945312 1.113281 L 50.550781 1.175781 L 49.359375 1.175781 L 48.964844 1.25 L 48.570312 1.25 L 48.171875 1.3125 L 47.777344 1.3125 L 47.378906 1.386719 L 46.910156 1.449219 L 46.511719 1.449219 L 46.117188 1.507812 L 45.71875 1.585938 L 45.261719 1.644531 L 46.054688 7.207031 L 45.582031 7.269531 L 45.1875 7.332031 L 44.789062 7.394531 L 44.394531 7.46875 L 44.058594 7.53125 L 43.664062 7.59375 L 43.277344 7.667969 L 42.945312 7.730469 L 42.546875 7.789062 L 42.214844 7.925781 L 41.816406 7.988281 L 41.480469 8.050781 L 41.085938 8.125 L 40.75 8.1875 L 40.429688 8.324219 L 40.03125 8.386719 L 39.699219 8.523438 L 39.363281 8.582031 L 38.96875 8.71875 L 38.632812 8.78125 L 38.3125 8.917969 L 37.902344 8.980469 L 37.578125 9.117188 L 37.257812 9.253906 L 36.847656 9.375 L 36.527344 9.511719 L 36.117188 9.648438 L 35.796875 9.785156 L 35.398438 9.910156 L 35.003906 10.105469 L 34.605469 10.242188 L 34.273438 10.441406 L 32.015625 5.214844 L 31.621094 5.410156 L 31.226562 5.609375 L 30.828125 5.734375 L 30.433594 5.945312 L 30.035156 6.144531 L 29.640625 6.339844 L 29.242188 6.539062 L 28.847656 6.738281 L 28.449219 6.9375 L 28.054688 7.132812 L 27.71875 7.332031 L 27.324219 7.59375 L 26.925781 7.789062 L 26.53125 7.988281 L 26.195312 8.1875 L 25.796875 8.460938 L 25.402344 8.65625 L 25.078125 8.917969 L 24.683594 9.117188 L 24.289062 9.375 L 23.953125 9.648438 L 23.554688 9.847656 L 23.160156 10.105469 L 22.824219 10.378906 L 22.429688 10.640625 L 22.09375 10.898438 L 21.699219 11.160156 L 21.363281 11.433594 L 20.96875 11.765625 L 20.570312 12.027344 L 20.25 12.363281 L 19.851562 12.621094 L 23.359375 16.921875 L 23.085938 17.117188 L 22.824219 17.316406 L 22.628906 17.515625 L 22.355469 17.777344 L 22.09375 17.984375 L 21.835938 18.171875 L 21.363281 18.644531 L 21.101562 18.902344 L 20.84375 19.101562 L 20.570312 19.375 L 20.308594 19.570312 L 20.113281 19.832031 L 19.851562 20.09375 L 19.578125 20.363281 L 19.320312 20.5625 L 19.046875 20.824219 L 18.859375 21.082031 L 18.589844 21.355469 L 18.328125 21.679688 L 18.054688 21.949219 L 17.796875 22.210938 L 17.535156 22.546875 L 17.335938 22.804688 L 17.066406 23.140625 L 16.804688 23.398438 L 16.542969 23.734375 L 16.273438 24.054688 L 16.011719 24.390625 L 15.8125 24.726562 L 15.539062 25.058594 L 15.28125 25.394531 L 10.847656 22.148438 L 10.648438 22.484375 L 10.449219 22.742188 L 10.1875 23.078125 L 9.992188 23.398438 L 9.792969 23.660156 L 9.582031 23.996094 L 9.394531 24.328125 L 9.125 24.664062 L 8.925781 24.984375 L 8.527344 25.65625 L 8.332031 25.976562 L 8.132812 26.3125 L 7.933594 26.632812 L 7.734375 27.042969 L 7.539062 27.363281 L 7.339844 27.773438 L 7.140625 28.09375 L 6.945312 28.492188 L 6.746094 28.824219 L 6.546875 29.222656 L 6.347656 29.617188 L 6.152344 30.015625 L 6.015625 30.410156 L 5.816406 30.808594 L 5.617188 31.203125 L 5.417969 31.601562 L 5.222656 31.996094 L 5.085938 32.46875 L 4.898438 32.863281 L 4.699219 33.324219 L 4.492188 33.78125 L 9.582031 35.761719 L 9.457031 36.097656 L 9.320312 36.433594 L 9.1875 36.765625 L 9.0625 37.089844 L 8.925781 37.421875 L 8.863281 37.757812 L 8.726562 38.082031 L 8.601562 38.414062 L 8.46875 38.75 L 8.394531 39.144531 L 8.269531 39.46875 L 8.195312 39.800781 L 8.070312 40.199219 L 8.007812 40.53125 L 7.871094 40.867188 L 7.796875 41.25 L 7.734375 41.585938 L 7.675781 41.996094 L 7.539062 42.316406 L 7.476562 42.714844 L 7.414062 43.109375 L 7.339844 43.507812 L 7.277344 43.902344 L 7.140625 44.300781 L 7.078125 44.695312 L 7.003906 45.09375 L 6.945312 45.488281 L 6.882812 45.886719 L 6.808594 46.28125 L 6.746094 46.753906 L 6.683594 47.148438 L 6.683594 47.605469 L 1.457031 47.011719 L 1.382812 47.410156 L 1.382812 47.804688 L 1.320312 48.203125 L 1.320312 48.933594 L 1.257812 49.328125 L 1.257812 56.664062 L 1.320312 57.058594 L 1.320312 57.789062 L 1.382812 58.1875 L 1.382812 58.582031 L 1.457031 58.980469 L 6.683594 58.386719 L 6.683594 58.84375 L 6.746094 59.238281 L 6.808594 59.710938 L 6.882812 60.105469 L 6.945312 60.503906 L 7.003906 60.898438 L 7.078125 61.296875 L 7.140625 61.691406 L 7.277344 62.089844 L 7.339844 62.484375 L 7.414062 62.882812 L 7.476562 63.277344 L 7.539062 63.675781 L 7.675781 63.996094 L 7.734375 64.40625 L 7.796875 64.738281 L 7.871094 65.125 L 8.007812 65.457031 L 8.070312 65.792969 L 8.195312 66.191406 L 8.269531 66.523438 L 8.394531 66.847656 L 8.46875 67.242188 L 8.601562 67.578125 L 8.726562 67.910156 L 8.863281 68.234375 L 8.925781 68.566406 L 9.0625 68.902344 L 9.1875 69.226562 L 9.320312 69.558594 L 9.457031 69.894531 L 9.582031 70.226562 L 4.492188 72.210938 L 4.699219 72.667969 L 4.898438 73.128906 L 5.085938 73.523438 L 5.222656 73.996094 L 5.417969 74.390625 L 5.617188 74.789062 L 6.015625 75.578125 L 6.152344 75.976562 L 6.347656 76.371094 L 6.546875 76.769531 L 6.746094 77.164062 L 6.945312 77.5 L 7.140625 77.898438 L 7.339844 78.21875 L 7.539062 78.628906 L 7.734375 78.949219 L 7.933594 79.359375 L 8.132812 79.679688 L 8.332031 80.015625 L 8.527344 80.335938 L 8.925781 81.007812 L 9.125 81.328125 L 9.394531 81.664062 L 9.582031 81.996094 L 9.792969 82.332031 L 9.992188 82.59375 L 10.1875 82.914062 L 10.449219 83.25 L 10.648438 83.507812 L 10.847656 83.84375 L 15.28125 80.597656 L 15.539062 80.933594 L 15.8125 81.265625 L 16.011719 81.601562 L 16.273438 81.933594 L 16.542969 82.257812 L 16.804688 82.59375 L 17.066406 82.851562 L 17.335938 83.1875 L 17.535156 83.445312 L 17.796875 83.78125 L 18.054688 84.042969 L 18.328125 84.3125 L 18.589844 84.636719 L 18.859375 84.910156 L 19.046875 85.167969 L 19.320312 85.429688 L 19.578125 85.628906 L 19.851562 85.898438 L 20.113281 86.160156 L 20.308594 86.417969 L 20.570312 86.617188 L 20.84375 86.890625 L 21.101562 87.089844 L 21.363281 87.347656 L 21.835938 87.820312 L 22.09375 88.003906 L 22.355469 88.214844 L 22.628906 88.476562 L 22.824219 88.675781 L 23.085938 88.871094 L 23.359375 89.070312 L 19.851562 93.371094 L 20.25 93.628906 L 20.570312 93.964844 L 20.96875 94.222656 L 21.363281 94.558594 L 21.699219 94.832031 L 22.09375 95.089844 L 22.429688 95.351562 L 22.824219 95.613281 L 23.160156 95.882812 L 23.554688 96.144531 L 23.953125 96.34375 L 24.289062 96.617188 L 24.683594 96.875 L 25.078125 97.074219 L 25.402344 97.335938 L 25.796875 97.53125 L 26.195312 97.804688 L 26.53125 98.003906 L 26.925781 98.203125 L 27.324219 98.398438 L 27.71875 98.660156 L 28.054688 98.859375 L 28.449219 99.054688 L 28.847656 99.253906 L 29.242188 99.453125 L 29.640625 99.652344 L 30.035156 99.847656 L 30.433594 100.046875 L 30.828125 100.257812 L 31.226562 100.382812 L 31.621094 100.578125 L 32.015625 100.777344 L 34.273438 95.550781 L 34.605469 95.75 L 35.003906 95.882812 L 35.398438 96.082031 L 35.796875 96.207031 L 36.117188 96.34375 L 36.527344 96.480469 L 36.847656 96.617188 L 37.257812 96.738281 L 37.578125 96.875 L 37.902344 97.011719 L 38.3125 97.074219 L 38.632812 97.210938 L 38.96875 97.273438 L 39.363281 97.410156 L 39.699219 97.46875 L 40.03125 97.605469 L 40.429688 97.667969 L 40.75 97.804688 L 41.085938 97.867188 L 41.480469 97.941406 L 41.816406 98.003906 L 42.214844 98.066406 L 42.546875 98.203125 L 42.945312 98.261719 L 43.277344 98.324219 L 43.664062 98.398438 L 44.058594 98.460938 L 44.394531 98.523438 L 44.789062 98.597656 L 45.1875 98.660156 L 45.582031 98.722656 L 46.054688 98.785156 L 45.261719 104.347656 L 45.71875 104.40625 L 46.117188 104.480469 L 46.511719 104.542969 L 46.910156 104.542969 L 47.378906 104.605469 L 47.777344 104.679688 L 48.171875 104.679688 L 48.570312 104.742188 L 48.964844 104.742188 L 49.359375 104.816406 L 50.550781 104.816406 L 50.945312 104.878906 L 54.054688 104.878906 L 54.390625 104.816406 L 55.183594 104.816406 L 55.582031 104.742188 L 55.976562 104.742188 L 56.375 104.679688 L 56.769531 104.679688 L 57.164062 104.605469 L 57.5625 104.542969 L 57.957031 104.542969 L 57.363281 98.785156 L 57.761719 98.722656 L 58.230469 98.660156 L 58.628906 98.597656 L 59.023438 98.597656 L 59.484375 98.523438 L 59.878906 98.398438 L 60.335938 98.324219 L 60.734375 98.261719 L 61.203125 98.203125 L 61.601562 98.140625 L 61.996094 98.003906 L 62.457031 97.941406 L 62.851562 97.804688 L 63.25 97.730469 L 63.644531 97.605469 L 64.117188 97.46875 L 64.511719 97.410156 L 64.910156 97.273438 L 65.304688 97.136719 L 65.703125 97.011719 L 66.097656 96.875 L 66.496094 96.738281 L 66.902344 96.617188 L 67.289062 96.480469 L 67.683594 96.34375 L 68.082031 96.144531 L 68.476562 96.007812 L 68.8125 95.882812 L 69.207031 95.6875 L 69.605469 95.550781 L 69.9375 95.351562 L 70.335938 95.226562 L 72.589844 100.519531 L 72.984375 100.382812 L 73.382812 100.183594 L 73.703125 99.984375 L 74.101562 99.847656 L 74.433594 99.652344 L 74.832031 99.453125 L 75.167969 99.328125 L 75.488281 99.128906 L 75.886719 98.917969 L 76.21875 98.722656 L 76.554688 98.597656 L 76.875 98.398438 L 77.222656 98.203125 L 77.546875 98.003906 L 77.941406 97.804688 L 78.277344 97.605469 L 78.535156 97.410156 L 78.871094 97.210938 L 79.191406 97.011719 L 79.527344 96.800781 L 79.863281 96.617188 L 80.195312 96.417969 L 80.457031 96.207031 L 80.789062 96.007812 L 81.050781 95.75 L 81.386719 95.550781 L 81.644531 95.351562 L 81.980469 95.152344 L 82.253906 94.894531 L 82.574219 94.695312 L 82.847656 94.496094 L 83.105469 94.222656 L 79.601562 89.605469 L 79.9375 89.40625 L 80.195312 89.132812 L 80.519531 88.871094 L 80.851562 88.675781 L 81.1875 88.414062 L 81.78125 87.820312 L 82.117188 87.546875 L 82.4375 87.285156 L 82.699219 87.027344 L 83.03125 86.691406 L 83.367188 86.417969 L 83.691406 86.097656 L 83.960938 85.761719 L 84.296875 85.503906 L 84.632812 85.167969 L 84.890625 84.835938 L 85.226562 84.5 L 85.484375 84.238281 L 85.746094 83.90625 L 86.082031 83.582031 L 86.351562 83.25 L 86.613281 82.914062 L 86.875 82.652344 L 87.132812 82.332031 L 87.40625 81.996094 L 87.605469 81.664062 L 87.863281 81.402344 L 88.074219 81.066406 L 88.335938 80.796875 L 88.535156 80.472656 L 88.730469 80.214844 L 93.363281 83.644531 L 93.625 83.324219 L 93.824219 82.988281 L 94.097656 82.714844 L 94.28125 82.394531 L 94.492188 82.058594 L 94.753906 81.738281 L 94.949219 81.402344 L 95.148438 81.066406 L 95.410156 80.671875 L 95.605469 80.335938 L 95.804688 80.015625 L 96.003906 79.617188 L 96.203125 79.285156 L 96.398438 78.949219 L 96.597656 78.554688 L 96.796875 78.21875 L 97.007812 77.824219 L 97.191406 77.5 L 97.402344 77.105469 L 97.601562 76.769531 L 97.789062 76.371094 L 97.925781 76.039062 L 98.121094 75.640625 L 98.257812 75.320312 L 98.457031 74.921875 L 98.59375 74.589844 L 98.792969 74.253906 L 98.914062 73.859375 L 99.050781 73.523438 L 99.175781 73.203125 L 99.324219 72.867188 L 99.449219 72.53125 L 94.097656 70.363281 L 94.28125 69.957031 L 94.417969 69.558594 L 94.554688 69.164062 L 94.691406 68.765625 L 94.8125 68.371094 L 94.949219 67.910156 L 95.085938 67.515625 L 95.210938 67.117188 L 95.347656 66.722656 L 95.484375 66.324219 L 95.605469 65.929688 L 95.679688 65.457031 L 95.804688 65.0625 L 95.941406 64.664062 L 96.003906 64.269531 L 96.140625 63.871094 L 96.203125 63.476562 L 96.265625 63.078125 L 96.398438 62.683594 L 96.472656 62.289062 L 96.535156 61.890625 L 96.597656 61.496094 L 96.671875 61.097656 L 96.722656 60.703125 L 96.796875 60.304688 L 96.796875 59.894531 L 96.871094 59.574219 L 96.933594 59.175781 L 96.933594 58.78125 L 97.007812 58.386719 L 97.007812 57.652344 L 102.695312 58.1875 L 102.753906 57.789062 L 102.753906 57.457031 L 102.828125 57.058594 L 102.828125 56.664062 L 102.890625 56.265625 L 102.890625 53.09375 L 102.878906 52.996094 L 102.890625 52.898438 L 102.890625 49.726562 L 102.828125 49.328125 L 102.828125 48.933594 L 102.753906 48.535156 L 102.753906 48.203125 L 102.695312 47.804688 L 97.007812 48.335938 L 97.007812 47.605469 L 96.933594 47.210938 L 96.933594 46.8125 L 96.871094 46.417969 L 96.796875 46.09375 L 96.796875 45.6875 L 96.722656 45.289062 L 96.671875 44.894531 L 96.597656 44.496094 L 96.535156 44.101562 L 96.472656 43.703125 L 96.398438 43.308594 L 96.265625 42.910156 L 96.203125 42.515625 L 96.140625 42.117188 L 96.003906 41.722656 L 95.941406 41.324219 L 95.804688 40.929688 L 95.679688 40.53125 L 95.605469 40.0625 L 95.484375 39.664062 L 95.210938 38.875 L 95.085938 38.476562 L 94.949219 38.082031 L 94.8125 37.621094 L 94.691406 37.226562 L 94.554688 36.828125 L 94.417969 36.433594 L 94.28125 36.035156 L 94.097656 35.628906 L 99.449219 33.460938 L 99.324219 33.125 L 99.175781 32.789062 L 99.050781 32.46875 L 98.914062 32.132812 L 98.792969 31.738281 L 98.59375 31.402344 L 98.457031 31.070312 L 98.257812 30.671875 L 98.121094 30.351562 L 97.925781 29.953125 L 97.789062 29.617188 L 97.601562 29.222656 L 97.402344 28.886719 L 97.191406 28.492188 L 97.007812 28.167969 L 96.796875 27.773438 L 96.597656 27.4375 L 96.398438 27.042969 L 96.203125 26.707031 L 96.003906 26.375 L 95.804688 25.976562 L 95.605469 25.65625 L 95.410156 25.320312 L 95.148438 24.921875 L 94.949219 24.589844 L 94.753906 24.253906 L 94.492188 23.933594 L 94.28125 23.597656 L 94.097656 23.277344 L 93.824219 23.003906 L 93.625 22.667969 L 93.363281 22.347656 L 88.730469 25.777344 L 88.535156 25.519531 L 88.335938 25.195312 L 88.074219 24.921875 L 87.863281 24.589844 L 87.605469 24.328125 L 87.40625 23.996094 L 87.132812 23.660156 L 86.875 23.339844 L 86.613281 23.078125 L 86.351562 22.742188 L 86.082031 22.410156 L 85.746094 22.085938 L 85.484375 21.753906 L 85.226562 21.492188 L 84.890625 21.15625 L 84.632812 20.824219 L 84.296875 20.488281 L 83.960938 20.230469 L 83.691406 19.894531 L 83.367188 19.570312 L 83.03125 19.300781 L 82.699219 18.964844 L 82.4375 18.703125 L 82.117188 18.445312 L 81.78125 18.171875 L 81.1875 17.578125 L 80.851562 17.316406 L 80.519531 17.117188 L 80.195312 16.859375 L 79.9375 16.585938 L 79.601562 16.386719 L 83.105469 11.765625 L 82.847656 11.496094 L 82.574219 11.296875 L 82.253906 11.097656 L 81.980469 10.839844 L 81.644531 10.640625 L 81.386719 10.441406 L 81.050781 10.242188 L 80.789062 9.984375 L 80.457031 9.785156 L 80.195312 9.574219 L 79.863281 9.375 L 79.527344 9.191406 L 79.191406 8.980469 L 78.871094 8.78125 L 78.535156 8.582031 L 78.277344 8.386719 L 77.941406 8.1875 L 77.546875 7.988281 L 77.222656 7.789062 L 76.875 7.59375 L 76.554688 7.394531 L 76.21875 7.269531 L 75.886719 7.070312 L 75.488281 6.863281 L 75.167969 6.664062 L 74.832031 6.539062 L 74.433594 6.339844 L 74.101562 6.144531 L 73.703125 6.007812 L 73.382812 5.808594 L 72.984375 5.609375 L 72.589844 5.472656 L 70.335938 10.765625 L 69.9375 10.640625 L 69.605469 10.441406 L 69.207031 10.304688 L 68.8125 10.105469 L 68.476562 9.984375 L 68.082031 9.847656 L 67.683594 9.648438 L 67.289062 9.511719 L 66.902344 9.375 L 66.496094 9.253906 L 66.097656 9.117188 L 65.703125 8.980469 L 65.304688 8.855469 L 64.910156 8.71875 L 64.511719 8.582031 L 64.117188 8.523438 L 63.644531 8.386719 L 63.25 8.261719 L 62.851562 8.1875 L 62.457031 8.050781 L 61.996094 7.988281 L 61.601562 7.851562 L 61.203125 7.789062 L 60.734375 7.730469 L 60.335938 7.667969 L 59.878906 7.59375 L 59.484375 7.46875 L 59.023438 7.394531 L 58.628906 7.394531 L 58.230469 7.332031 L 57.761719 7.269531 L 57.363281 7.207031 L 57.957031 1.449219 L 57.5625 1.449219 L 57.164062 1.386719 L 56.769531 1.3125 L 56.375 1.3125 L 55.976562 1.25 L 55.582031 1.25 L 55.183594 1.175781 L 54.390625 1.175781 L 54.054688 1.113281 Z M 52.011719 14.742188 L 54.128906 14.800781 L 56.164062 14.9375 L 58.230469 15.273438 L 60.277344 15.667969 L 62.332031 16.203125 L 64.3125 16.859375 L 66.296875 17.578125 L 68.277344 18.445312 L 70.136719 19.4375 L 72.058594 20.5625 L 73.839844 21.753906 L 77.285156 24.527344 L 78.933594 26.113281 L 80.457031 27.835938 L 81.980469 29.617188 L 81.84375 29.617188 C 83.21875 31.394531 84.441406 33.285156 85.484375 35.292969 L 85.484375 35.242188 L 85.695312 35.714844 C 88.191406 40.652344 89.625 46.207031 89.722656 52.089844 L 89.710938 52.089844 C 89.71875 52.390625 89.730469 52.695312 89.734375 52.996094 C 89.730469 53.296875 89.71875 53.601562 89.710938 53.898438 L 89.722656 53.898438 C 89.625 59.785156 88.191406 65.339844 85.695312 70.277344 L 85.484375 70.75 L 85.484375 70.699219 C 84.441406 72.703125 83.21875 74.597656 81.84375 76.371094 L 81.980469 76.371094 L 80.457031 78.15625 L 78.933594 79.878906 L 77.285156 81.464844 L 73.839844 84.238281 L 72.058594 85.429688 L 70.136719 86.554688 L 68.277344 87.546875 L 66.296875 88.414062 L 64.3125 89.132812 L 62.332031 89.789062 L 60.277344 90.320312 L 58.230469 90.71875 L 56.164062 91.054688 L 54.128906 91.1875 L 52.011719 91.25 L 49.957031 91.1875 L 47.835938 91.054688 L 45.78125 90.71875 L 43.738281 90.320312 L 41.679688 89.789062 L 39.699219 89.132812 L 37.714844 88.414062 L 35.722656 87.546875 L 33.875 86.496094 L 31.957031 85.429688 L 30.171875 84.175781 L 28.386719 82.851562 L 26.726562 81.328125 L 25.078125 79.742188 L 23.480469 78.03125 L 22.03125 76.238281 L 22.105469 76.238281 C 20.722656 74.433594 19.507812 72.503906 18.464844 70.464844 L 18.453125 70.550781 L 18.292969 70.117188 C 15.847656 65.21875 14.425781 59.722656 14.328125 53.898438 L 14.339844 53.898438 C 14.332031 53.601562 14.320312 53.296875 14.316406 52.996094 C 14.320312 52.695312 14.332031 52.390625 14.339844 52.089844 L 14.328125 52.089844 C 14.425781 46.273438 15.847656 40.769531 18.292969 35.875 L 18.453125 35.441406 L 18.464844 35.527344 C 19.507812 33.488281 20.722656 31.558594 22.105469 29.753906 L 22.03125 29.753906 L 23.480469 27.957031 L 25.078125 26.25 L 26.726562 24.664062 L 28.386719 23.140625 L 30.171875 21.8125 L 31.957031 20.5625 L 33.875 19.496094 L 35.722656 18.445312 L 37.714844 17.578125 L 39.699219 16.859375 L 41.679688 16.203125 L 43.738281 15.667969 L 45.78125 15.273438 L 47.835938 14.9375 L 49.957031 14.800781 Z M 52.011719 14.742188 " fill-opacity="1" fill-rule="nonzero"/></g><g clip-path="url(#d2a993108a)"><g clip-path="url(#55883c8e98)"><path fill="#ff6600" d="M 80.078125 66.988281 C 80.011719 66.273438 79.878906 65.570312 79.679688 64.878906 C 79.667969 64.839844 79.664062 64.816406 79.664062 64.816406 C 79.660156 64.804688 79.65625 64.792969 79.652344 64.78125 C 77.421875 72.265625 67.601562 78.074219 55.382812 78.972656 L 55.382812 50.707031 L 65.746094 49.988281 C 66.175781 50.574219 66.867188 50.953125 67.648438 50.953125 C 68.957031 50.953125 70.015625 49.894531 70.015625 48.589844 C 70.015625 47.28125 68.957031 46.222656 67.648438 46.222656 C 66.820312 46.222656 66.089844 46.652344 65.667969 47.296875 L 55.382812 46.46875 L 55.382812 42.429688 C 58.421875 41.152344 60.558594 38.144531 60.558594 34.640625 C 60.558594 29.976562 56.777344 26.195312 52.109375 26.195312 C 47.445312 26.195312 43.664062 29.976562 43.664062 34.640625 C 43.664062 38.144531 45.800781 41.152344 48.839844 42.429688 L 48.839844 46.46875 L 38.546875 47.296875 C 38.125 46.652344 37.398438 46.222656 36.570312 46.222656 C 35.261719 46.222656 34.203125 47.28125 34.203125 48.589844 C 34.203125 49.894531 35.261719 50.953125 36.570312 50.953125 C 37.351562 50.953125 38.042969 50.574219 38.472656 49.988281 L 48.839844 50.707031 L 48.839844 78.976562 C 36.589844 78.097656 26.738281 72.277344 24.5 64.777344 C 24.273438 65.535156 24.128906 66.3125 24.0625 67.097656 C 23.613281 70.1875 23.300781 75.773438 25.898438 79.78125 C 25.730469 78.347656 25.820312 76.523438 26.789062 75.632812 C 28.953125 78.445312 32.273438 80.839844 36.371094 82.574219 C 36.4375 82.605469 36.507812 82.628906 36.578125 82.660156 L 36.578125 82.671875 C 36.667969 82.703125 36.753906 82.734375 36.839844 82.765625 C 37.554688 83.054688 38.289062 83.328125 39.046875 83.574219 C 49.675781 87.753906 52.074219 92.824219 52.074219 92.824219 L 52.074219 92.703125 L 52.074219 92.824219 C 52.074219 92.824219 54.480469 87.734375 65.160156 83.554688 C 65.875 83.316406 66.574219 83.0625 67.253906 82.785156 C 67.359375 82.75 67.464844 82.710938 67.574219 82.671875 L 67.574219 82.65625 C 71.761719 80.917969 75.164062 78.492188 77.363281 75.632812 C 78.335938 76.523438 78.425781 78.347656 78.253906 79.78125 C 80.886719 75.722656 80.535156 70.054688 80.078125 66.988281 Z M 52.113281 30.417969 C 54.445312 30.417969 56.332031 32.308594 56.332031 34.640625 C 56.332031 36.972656 54.445312 38.863281 52.113281 38.863281 C 49.78125 38.863281 47.890625 36.972656 47.890625 34.640625 C 47.890625 32.308594 49.78125 30.417969 52.113281 30.417969 Z M 52.113281 30.417969 " fill-opacity="1" fill-rule="nonzero"/></g></g><g clip-path="url(#7e8dae2414)"><path fill="#ff6600" d="M 73.832031 43.070312 C 68.097656 33.0625 52.113281 23.789062 52.113281 14.148438 C 52.113281 26.105469 27.828125 36.96875 27.828125 51.367188 C 27.828125 64.546875 45.765625 68.816406 51.625 56.980469 C 50.039062 66.988281 44.546875 72.722656 44.546875 72.722656 L 59.800781 72.722656 C 59.800781 72.722656 54.308594 66.988281 52.601562 56.980469 C 59.800781 71.625 84.082031 61.371094 73.832031 43.070312 Z M 30.632812 51.367188 C 30.632812 45.019531 37.589844 38.429688 38.6875 37.210938 C 36.125 40.382812 33.5625 44.777344 33.5625 48.804688 C 33.5625 55.394531 39.296875 60.398438 45.523438 59.664062 C 38.933594 63.691406 30.632812 58.933594 30.632812 51.367188 Z M 30.632812 51.367188 " fill-opacity="1" fill-rule="nonzero"/></g><g clip-path="url(#e32c8981f1)"><path fill="#ff6600" d="M 51.925781 79.878906 L 51.867188 79.886719 L 51.699219 79.886719 L 51.644531 79.898438 L 51.589844 79.898438 L 51.53125 79.90625 L 51.476562 79.90625 L 51.421875 79.917969 L 51.355469 79.925781 L 51.296875 79.925781 L 51.242188 79.933594 L 51.183594 79.945312 L 51.121094 79.953125 L 51.234375 80.742188 L 51.164062 80.75 L 51.109375 80.757812 L 51.054688 80.769531 L 50.996094 80.777344 L 50.949219 80.789062 L 50.894531 80.796875 L 50.839844 80.808594 L 50.792969 80.816406 L 50.738281 80.824219 L 50.6875 80.84375 L 50.632812 80.851562 L 50.585938 80.859375 L 50.53125 80.871094 L 50.480469 80.878906 L 50.4375 80.898438 L 50.378906 80.910156 L 50.332031 80.929688 L 50.285156 80.9375 L 50.230469 80.957031 L 50.183594 80.964844 L 50.136719 80.984375 L 50.078125 80.992188 L 50.035156 81.011719 L 49.988281 81.03125 L 49.882812 81.066406 L 49.828125 81.085938 L 49.78125 81.105469 L 49.726562 81.125 L 49.667969 81.152344 L 49.613281 81.171875 L 49.566406 81.199219 L 49.246094 80.460938 L 49.191406 80.488281 L 49.132812 80.515625 L 49.078125 80.535156 L 49.023438 80.5625 L 48.964844 80.589844 L 48.910156 80.621094 L 48.851562 80.648438 L 48.742188 80.703125 L 48.683594 80.730469 L 48.636719 80.757812 L 48.582031 80.796875 L 48.523438 80.824219 L 48.46875 80.851562 L 48.421875 80.878906 L 48.367188 80.917969 L 48.308594 80.945312 L 48.265625 80.984375 L 48.207031 81.011719 L 48.152344 81.050781 L 48.105469 81.085938 L 48.046875 81.117188 L 47.992188 81.152344 L 47.945312 81.191406 L 47.890625 81.226562 L 47.839844 81.265625 L 47.785156 81.300781 L 47.738281 81.339844 L 47.683594 81.386719 L 47.625 81.425781 L 47.582031 81.472656 L 47.523438 81.507812 L 48.019531 82.117188 L 47.980469 82.144531 L 47.945312 82.171875 L 47.878906 82.238281 L 47.839844 82.269531 L 47.804688 82.292969 L 47.699219 82.398438 L 47.664062 82.425781 L 47.625 82.464844 L 47.589844 82.492188 L 47.5625 82.527344 L 47.484375 82.605469 L 47.449219 82.632812 L 47.410156 82.667969 L 47.382812 82.707031 L 47.34375 82.746094 L 47.308594 82.789062 L 47.269531 82.828125 L 47.234375 82.867188 L 47.195312 82.914062 L 47.167969 82.949219 L 47.128906 82.996094 L 47.09375 83.035156 L 47.054688 83.082031 L 47.015625 83.125 L 46.980469 83.175781 L 46.953125 83.222656 L 46.914062 83.269531 L 46.878906 83.316406 L 46.25 82.855469 L 46.222656 82.902344 L 46.191406 82.941406 L 46.15625 82.988281 L 46.128906 83.035156 L 46.101562 83.070312 L 46.070312 83.117188 L 46.042969 83.164062 L 46.003906 83.210938 L 45.867188 83.445312 L 45.835938 83.492188 L 45.808594 83.550781 L 45.78125 83.59375 L 45.753906 83.652344 L 45.726562 83.699219 L 45.695312 83.753906 L 45.667969 83.800781 L 45.640625 83.859375 L 45.585938 83.96875 L 45.566406 84.027344 L 45.539062 84.082031 L 45.507812 84.136719 L 45.480469 84.195312 L 45.453125 84.25 L 45.433594 84.316406 L 45.40625 84.375 L 45.378906 84.4375 L 45.351562 84.503906 L 46.070312 84.785156 L 46.054688 84.832031 L 45.976562 85.019531 L 45.96875 85.066406 L 45.949219 85.113281 L 45.933594 85.160156 L 45.914062 85.207031 L 45.902344 85.261719 L 45.882812 85.308594 L 45.875 85.355469 L 45.855469 85.410156 L 45.847656 85.457031 L 45.828125 85.507812 L 45.816406 85.5625 L 45.808594 85.609375 L 45.800781 85.664062 L 45.78125 85.710938 L 45.773438 85.765625 L 45.761719 85.824219 L 45.753906 85.878906 L 45.746094 85.9375 L 45.726562 85.992188 L 45.714844 86.046875 L 45.707031 86.105469 L 45.695312 86.160156 L 45.6875 86.214844 L 45.675781 86.273438 L 45.667969 86.339844 L 45.660156 86.394531 L 45.660156 86.460938 L 44.921875 86.375 L 44.910156 86.433594 L 44.910156 86.488281 L 44.902344 86.542969 L 44.902344 86.648438 L 44.890625 86.703125 L 44.890625 87.742188 L 44.902344 87.796875 L 44.902344 87.902344 L 44.910156 87.957031 L 44.910156 88.011719 L 44.921875 88.070312 L 45.660156 87.984375 L 45.660156 88.050781 L 45.667969 88.105469 L 45.675781 88.171875 L 45.6875 88.230469 L 45.695312 88.285156 L 45.707031 88.339844 L 45.714844 88.398438 L 45.726562 88.453125 L 45.746094 88.511719 L 45.761719 88.621094 L 45.773438 88.679688 L 45.78125 88.734375 L 45.800781 88.78125 L 45.808594 88.835938 L 45.816406 88.886719 L 45.828125 88.941406 L 45.847656 88.988281 L 45.855469 89.035156 L 45.875 89.089844 L 45.882812 89.136719 L 45.902344 89.183594 L 45.914062 89.238281 L 45.933594 89.285156 L 45.949219 89.335938 L 45.96875 89.378906 L 45.976562 89.425781 L 46.054688 89.613281 L 46.070312 89.660156 L 45.351562 89.941406 L 45.378906 90.007812 L 45.40625 90.070312 L 45.433594 90.128906 L 45.453125 90.195312 L 45.480469 90.25 L 45.507812 90.308594 L 45.539062 90.363281 L 45.566406 90.417969 L 45.585938 90.476562 L 45.640625 90.585938 L 45.667969 90.644531 L 45.695312 90.691406 L 45.726562 90.746094 L 45.753906 90.792969 L 45.78125 90.851562 L 45.808594 90.894531 L 45.835938 90.953125 L 45.867188 91 L 46.003906 91.234375 L 46.042969 91.28125 L 46.070312 91.328125 L 46.101562 91.375 L 46.128906 91.410156 L 46.15625 91.457031 L 46.191406 91.503906 L 46.222656 91.542969 L 46.25 91.589844 L 46.878906 91.128906 L 46.914062 91.175781 L 46.953125 91.222656 L 46.980469 91.273438 L 47.015625 91.320312 L 47.054688 91.363281 L 47.09375 91.410156 L 47.128906 91.449219 L 47.167969 91.496094 L 47.195312 91.53125 L 47.234375 91.582031 L 47.308594 91.65625 L 47.34375 91.703125 L 47.382812 91.738281 L 47.410156 91.777344 L 47.449219 91.8125 L 47.484375 91.839844 L 47.5625 91.917969 L 47.589844 91.953125 L 47.625 91.980469 L 47.664062 92.019531 L 47.699219 92.046875 L 47.804688 92.152344 L 47.839844 92.179688 L 47.878906 92.207031 L 47.945312 92.273438 L 47.980469 92.300781 L 48.019531 92.328125 L 47.523438 92.9375 L 47.582031 92.972656 L 47.625 93.023438 L 47.683594 93.058594 L 47.738281 93.105469 L 47.785156 93.144531 L 47.839844 93.179688 L 47.890625 93.21875 L 47.945312 93.253906 L 47.992188 93.292969 L 48.046875 93.332031 L 48.105469 93.359375 L 48.152344 93.398438 L 48.207031 93.433594 L 48.265625 93.460938 L 48.308594 93.5 L 48.367188 93.527344 L 48.421875 93.566406 L 48.46875 93.59375 L 48.523438 93.621094 L 48.582031 93.648438 L 48.636719 93.6875 L 48.683594 93.714844 L 48.742188 93.742188 L 48.851562 93.796875 L 48.910156 93.828125 L 48.964844 93.855469 L 49.023438 93.882812 L 49.078125 93.914062 L 49.132812 93.929688 L 49.191406 93.957031 L 49.246094 93.984375 L 49.566406 93.246094 L 49.613281 93.273438 L 49.667969 93.292969 L 49.726562 93.320312 L 49.78125 93.339844 L 49.828125 93.359375 L 49.882812 93.378906 L 49.929688 93.398438 L 49.988281 93.414062 L 50.035156 93.433594 L 50.078125 93.453125 L 50.136719 93.460938 L 50.183594 93.480469 L 50.230469 93.488281 L 50.285156 93.507812 L 50.332031 93.519531 L 50.378906 93.535156 L 50.4375 93.546875 L 50.480469 93.566406 L 50.53125 93.574219 L 50.585938 93.585938 L 50.632812 93.59375 L 50.6875 93.601562 L 50.738281 93.621094 L 50.792969 93.628906 L 50.839844 93.640625 L 50.949219 93.65625 L 50.996094 93.667969 L 51.054688 93.675781 L 51.109375 93.6875 L 51.164062 93.695312 L 51.234375 93.703125 L 51.121094 94.492188 L 51.183594 94.5 L 51.242188 94.511719 L 51.296875 94.519531 L 51.355469 94.519531 L 51.421875 94.527344 L 51.476562 94.539062 L 51.53125 94.539062 L 51.589844 94.546875 L 51.644531 94.546875 L 51.699219 94.558594 L 51.867188 94.558594 L 51.925781 94.566406 L 52.367188 94.566406 L 52.414062 94.558594 L 52.523438 94.558594 L 52.582031 94.546875 L 52.636719 94.546875 L 52.691406 94.539062 L 52.75 94.539062 L 52.804688 94.527344 L 52.863281 94.519531 L 52.917969 94.519531 L 52.832031 93.703125 L 52.890625 93.695312 L 52.957031 93.6875 L 53.011719 93.675781 L 53.070312 93.675781 L 53.132812 93.667969 L 53.191406 93.648438 L 53.253906 93.640625 L 53.308594 93.628906 L 53.378906 93.621094 L 53.433594 93.613281 L 53.488281 93.59375 L 53.554688 93.585938 L 53.609375 93.566406 L 53.667969 93.554688 L 53.722656 93.535156 L 53.789062 93.519531 L 53.84375 93.507812 L 53.902344 93.488281 L 53.957031 93.46875 L 54.011719 93.453125 L 54.070312 93.433594 L 54.125 93.414062 L 54.183594 93.398438 L 54.292969 93.359375 L 54.351562 93.332031 L 54.40625 93.3125 L 54.453125 93.292969 L 54.511719 93.265625 L 54.566406 93.246094 L 54.613281 93.21875 L 54.667969 93.199219 L 54.988281 93.949219 L 55.042969 93.929688 L 55.101562 93.902344 L 55.144531 93.875 L 55.203125 93.855469 L 55.25 93.828125 L 55.304688 93.796875 L 55.351562 93.78125 L 55.398438 93.753906 L 55.453125 93.722656 L 55.503906 93.695312 L 55.550781 93.675781 L 55.59375 93.648438 L 55.644531 93.621094 L 55.691406 93.59375 L 55.746094 93.566406 L 55.792969 93.535156 L 55.832031 93.507812 L 55.878906 93.480469 L 55.921875 93.453125 L 55.96875 93.421875 L 56.019531 93.398438 L 56.066406 93.367188 L 56.101562 93.339844 L 56.148438 93.3125 L 56.1875 93.273438 L 56.234375 93.246094 L 56.269531 93.21875 L 56.316406 93.191406 L 56.355469 93.152344 L 56.402344 93.125 L 56.441406 93.097656 L 56.476562 93.058594 L 55.980469 92.40625 L 56.027344 92.375 L 56.066406 92.335938 L 56.109375 92.300781 L 56.15625 92.273438 L 56.207031 92.234375 L 56.289062 92.152344 L 56.335938 92.113281 L 56.382812 92.078125 L 56.417969 92.039062 L 56.464844 91.992188 L 56.515625 91.953125 L 56.558594 91.90625 L 56.597656 91.859375 L 56.644531 91.824219 L 56.691406 91.777344 L 56.730469 91.730469 L 56.777344 91.683594 L 56.8125 91.644531 L 56.851562 91.597656 L 56.898438 91.550781 L 56.9375 91.503906 L 56.972656 91.457031 L 57.011719 91.421875 L 57.046875 91.375 L 57.085938 91.328125 L 57.113281 91.28125 L 57.152344 91.242188 L 57.179688 91.195312 L 57.21875 91.15625 L 57.246094 91.113281 L 57.273438 91.074219 L 57.929688 91.5625 L 57.964844 91.515625 L 57.992188 91.46875 L 58.03125 91.429688 L 58.058594 91.382812 L 58.089844 91.335938 L 58.125 91.289062 L 58.179688 91.195312 L 58.21875 91.140625 L 58.273438 91.046875 L 58.300781 90.992188 L 58.332031 90.945312 L 58.359375 90.894531 L 58.386719 90.839844 L 58.414062 90.792969 L 58.445312 90.738281 L 58.472656 90.691406 L 58.5 90.636719 L 58.527344 90.585938 L 58.554688 90.53125 L 58.574219 90.484375 L 58.601562 90.429688 L 58.621094 90.382812 L 58.648438 90.328125 L 58.667969 90.277344 L 58.695312 90.230469 L 58.714844 90.175781 L 58.734375 90.128906 L 58.75 90.082031 L 58.773438 90.035156 L 58.789062 89.988281 L 58.03125 89.679688 L 58.058594 89.625 L 58.078125 89.566406 L 58.097656 89.511719 L 58.117188 89.453125 L 58.132812 89.398438 L 58.152344 89.335938 L 58.171875 89.277344 L 58.191406 89.222656 L 58.210938 89.164062 L 58.230469 89.109375 L 58.246094 89.054688 L 58.257812 88.988281 L 58.273438 88.929688 L 58.292969 88.875 L 58.300781 88.820312 L 58.320312 88.761719 L 58.332031 88.707031 L 58.339844 88.648438 L 58.359375 88.59375 L 58.371094 88.539062 L 58.378906 88.480469 L 58.386719 88.425781 L 58.398438 88.371094 L 58.402344 88.3125 L 58.414062 88.257812 L 58.414062 88.199219 L 58.425781 88.152344 L 58.433594 88.097656 L 58.433594 88.042969 L 58.445312 87.984375 L 58.445312 87.882812 L 59.25 87.957031 L 59.257812 87.902344 L 59.257812 87.855469 L 59.269531 87.796875 L 59.269531 87.742188 L 59.277344 87.6875 L 59.277344 86.761719 L 59.269531 86.703125 L 59.269531 86.648438 L 59.257812 86.589844 L 59.257812 86.542969 L 59.25 86.488281 L 58.445312 86.5625 L 58.445312 86.460938 L 58.433594 86.402344 L 58.433594 86.347656 L 58.425781 86.292969 L 58.414062 86.246094 L 58.414062 86.1875 L 58.402344 86.132812 L 58.398438 86.074219 L 58.386719 86.019531 L 58.378906 85.964844 L 58.371094 85.90625 L 58.359375 85.851562 L 58.339844 85.796875 L 58.332031 85.738281 L 58.320312 85.683594 L 58.300781 85.628906 L 58.292969 85.570312 L 58.273438 85.515625 L 58.257812 85.457031 L 58.246094 85.390625 L 58.230469 85.335938 L 58.210938 85.28125 L 58.191406 85.222656 L 58.152344 85.113281 L 58.132812 85.046875 L 58.117188 84.992188 L 58.097656 84.933594 L 58.058594 84.824219 L 58.03125 84.765625 L 58.789062 84.457031 L 58.773438 84.410156 L 58.75 84.363281 L 58.734375 84.316406 L 58.714844 84.269531 L 58.695312 84.214844 L 58.667969 84.167969 L 58.648438 84.121094 L 58.621094 84.0625 L 58.601562 84.015625 L 58.574219 83.960938 L 58.554688 83.914062 L 58.527344 83.859375 L 58.5 83.8125 L 58.472656 83.753906 L 58.445312 83.707031 L 58.414062 83.652344 L 58.386719 83.605469 L 58.359375 83.550781 L 58.332031 83.503906 L 58.300781 83.453125 L 58.273438 83.398438 L 58.21875 83.304688 L 58.179688 83.25 L 58.125 83.15625 L 58.089844 83.109375 L 58.058594 83.0625 L 58.03125 83.015625 L 57.992188 82.976562 L 57.964844 82.929688 L 57.929688 82.886719 L 57.273438 83.371094 L 57.246094 83.332031 L 57.21875 83.289062 L 57.179688 83.25 L 57.152344 83.203125 L 57.113281 83.164062 L 57.085938 83.117188 L 57.046875 83.070312 L 57.011719 83.023438 L 56.972656 82.988281 L 56.9375 82.941406 L 56.898438 82.894531 L 56.851562 82.847656 L 56.8125 82.800781 L 56.777344 82.765625 L 56.730469 82.714844 L 56.691406 82.667969 L 56.644531 82.621094 L 56.597656 82.585938 L 56.558594 82.539062 L 56.515625 82.492188 L 56.464844 82.453125 L 56.382812 82.371094 L 56.289062 82.292969 L 56.242188 82.25 L 56.207031 82.210938 L 56.15625 82.171875 L 56.109375 82.144531 L 56.066406 82.109375 L 56.027344 82.070312 L 55.980469 82.042969 L 56.476562 81.386719 L 56.441406 81.347656 L 56.402344 81.320312 L 56.355469 81.292969 L 56.316406 81.253906 L 56.269531 81.226562 L 56.234375 81.199219 L 56.1875 81.171875 L 56.148438 81.136719 L 56.101562 81.105469 L 56.066406 81.078125 L 56.019531 81.050781 L 55.96875 81.023438 L 55.921875 80.992188 L 55.878906 80.964844 L 55.832031 80.9375 L 55.792969 80.910156 L 55.746094 80.878906 L 55.691406 80.851562 L 55.644531 80.824219 L 55.59375 80.796875 L 55.550781 80.769531 L 55.503906 80.75 L 55.453125 80.722656 L 55.398438 80.691406 L 55.351562 80.664062 L 55.304688 80.648438 L 55.25 80.621094 L 55.203125 80.589844 L 55.144531 80.570312 L 55.101562 80.542969 L 55.042969 80.515625 L 54.988281 80.496094 L 54.667969 81.246094 L 54.613281 81.226562 L 54.566406 81.199219 L 54.511719 81.179688 L 54.453125 81.152344 L 54.40625 81.136719 L 54.351562 81.117188 L 54.292969 81.085938 L 54.238281 81.066406 L 54.183594 81.050781 L 54.125 81.03125 L 54.070312 81.011719 L 54.011719 80.992188 L 53.957031 80.976562 L 53.902344 80.957031 L 53.84375 80.9375 L 53.789062 80.929688 L 53.722656 80.910156 L 53.667969 80.890625 L 53.609375 80.878906 L 53.554688 80.859375 L 53.488281 80.851562 L 53.433594 80.832031 L 53.378906 80.824219 L 53.308594 80.816406 L 53.253906 80.808594 L 53.191406 80.796875 L 53.132812 80.777344 L 53.070312 80.769531 L 53.011719 80.769531 L 52.957031 80.757812 L 52.890625 80.75 L 52.832031 80.742188 L 52.917969 79.925781 L 52.863281 79.925781 L 52.804688 79.917969 L 52.75 79.90625 L 52.691406 79.90625 L 52.636719 79.898438 L 52.582031 79.898438 L 52.523438 79.886719 L 52.414062 79.886719 L 52.367188 79.878906 Z M 52.074219 81.808594 L 52.375 81.816406 L 52.664062 81.835938 L 52.957031 81.882812 L 53.246094 81.941406 L 53.535156 82.015625 L 53.816406 82.109375 L 54.097656 82.210938 L 54.378906 82.332031 L 54.640625 82.472656 L 54.914062 82.632812 L 55.164062 82.800781 L 55.410156 82.996094 L 55.652344 83.195312 L 55.886719 83.417969 L 56.101562 83.660156 L 56.316406 83.914062 L 56.296875 83.914062 C 56.492188 84.164062 56.664062 84.433594 56.8125 84.71875 L 56.8125 84.710938 L 56.84375 84.777344 C 57.195312 85.476562 57.398438 86.261719 57.414062 87.09375 L 57.410156 87.09375 C 57.414062 87.136719 57.414062 87.179688 57.414062 87.222656 C 57.414062 87.265625 57.414062 87.308594 57.410156 87.351562 L 57.414062 87.351562 C 57.398438 88.183594 57.195312 88.96875 56.84375 89.667969 L 56.8125 89.734375 L 56.8125 89.730469 C 56.664062 90.011719 56.492188 90.28125 56.296875 90.53125 L 56.316406 90.53125 L 56.101562 90.785156 L 55.886719 91.027344 L 55.652344 91.253906 L 55.410156 91.449219 L 55.164062 91.644531 L 54.914062 91.8125 L 54.640625 91.972656 L 54.378906 92.113281 L 54.097656 92.234375 L 53.816406 92.335938 L 53.535156 92.429688 L 53.246094 92.507812 L 52.957031 92.5625 L 52.664062 92.609375 L 52.375 92.628906 L 52.074219 92.636719 L 51.785156 92.628906 L 51.484375 92.609375 L 51.195312 92.5625 L 50.90625 92.507812 L 50.613281 92.429688 L 50.332031 92.335938 L 50.050781 92.234375 L 49.769531 92.113281 L 49.507812 91.964844 L 49.238281 91.8125 L 48.984375 91.636719 L 48.730469 91.449219 L 48.496094 91.234375 L 48.265625 91.007812 L 48.039062 90.765625 L 47.832031 90.511719 L 47.84375 90.511719 C 47.648438 90.257812 47.476562 89.984375 47.328125 89.695312 L 47.324219 89.707031 L 47.304688 89.644531 C 46.957031 88.953125 46.757812 88.175781 46.742188 87.351562 C 46.742188 87.308594 46.742188 87.265625 46.742188 87.222656 C 46.742188 87.179688 46.742188 87.136719 46.742188 87.09375 C 46.757812 86.269531 46.957031 85.492188 47.304688 84.800781 L 47.324219 84.738281 L 47.328125 84.75 C 47.476562 84.460938 47.648438 84.1875 47.84375 83.933594 L 47.832031 83.933594 L 48.039062 83.679688 L 48.265625 83.4375 L 48.496094 83.210938 L 48.730469 82.996094 L 48.984375 82.808594 L 49.238281 82.632812 L 49.507812 82.480469 L 49.769531 82.332031 L 50.050781 82.210938 L 50.332031 82.109375 L 50.613281 82.015625 L 50.90625 81.941406 L 51.195312 81.882812 L 51.484375 81.835938 L 51.785156 81.816406 Z M 52.074219 81.808594 " fill-opacity="1" fill-rule="nonzero"/></g><g clip-path="url(#33c9cee92c)"><path fill="#ff6600" d="M 52.125 70.671875 L 52.058594 70.679688 L 51.863281 70.679688 L 51.796875 70.695312 L 51.734375 70.695312 L 51.667969 70.703125 L 51.601562 70.703125 L 51.539062 70.714844 L 51.460938 70.726562 L 51.394531 70.726562 L 51.332031 70.738281 L 51.265625 70.75 L 51.191406 70.757812 L 51.320312 71.671875 L 51.242188 71.683594 L 51.175781 71.691406 L 51.113281 71.703125 L 51.046875 71.714844 L 50.992188 71.726562 L 50.925781 71.734375 L 50.863281 71.75 L 50.808594 71.757812 L 50.742188 71.769531 L 50.6875 71.789062 L 50.625 71.800781 L 50.570312 71.8125 L 50.503906 71.824219 L 50.449219 71.832031 L 50.394531 71.855469 L 50.332031 71.867188 L 50.277344 71.886719 L 50.222656 71.898438 L 50.15625 71.921875 L 50.101562 71.929688 L 50.046875 71.953125 L 49.980469 71.964844 L 49.929688 71.984375 L 49.875 72.007812 L 49.808594 72.027344 L 49.753906 72.050781 L 49.6875 72.074219 L 49.632812 72.097656 L 49.570312 72.117188 L 49.503906 72.148438 L 49.4375 72.171875 L 49.382812 72.203125 L 49.015625 71.34375 L 48.949219 71.378906 L 48.882812 71.410156 L 48.820312 71.429688 L 48.753906 71.464844 L 48.6875 71.496094 L 48.621094 71.53125 L 48.558594 71.5625 L 48.492188 71.59375 L 48.425781 71.628906 L 48.363281 71.660156 L 48.308594 71.691406 L 48.242188 71.734375 L 48.175781 71.769531 L 48.113281 71.800781 L 48.058594 71.832031 L 47.992188 71.878906 L 47.925781 71.910156 L 47.875 71.953125 L 47.808594 71.984375 L 47.742188 72.027344 L 47.6875 72.074219 L 47.625 72.105469 L 47.558594 72.148438 L 47.503906 72.195312 L 47.4375 72.238281 L 47.382812 72.28125 L 47.316406 72.320312 L 47.261719 72.367188 L 47.199219 72.421875 L 47.132812 72.464844 L 47.078125 72.519531 L 47.015625 72.5625 L 47.589844 73.269531 L 47.503906 73.332031 L 47.472656 73.367188 L 47.425781 73.410156 L 47.382812 73.445312 L 47.339844 73.472656 L 47.296875 73.519531 L 47.261719 73.550781 L 47.21875 73.59375 L 47.175781 73.625 L 47.132812 73.671875 L 47.089844 73.703125 L 47.058594 73.746094 L 46.96875 73.835938 L 46.925781 73.867188 L 46.882812 73.910156 L 46.851562 73.953125 L 46.808594 73.996094 L 46.765625 74.050781 L 46.71875 74.09375 L 46.675781 74.136719 L 46.632812 74.191406 L 46.601562 74.234375 L 46.558594 74.289062 L 46.515625 74.332031 L 46.472656 74.386719 L 46.425781 74.441406 L 46.382812 74.496094 L 46.351562 74.550781 L 46.304688 74.605469 L 46.265625 74.660156 L 45.535156 74.128906 L 45.503906 74.183594 L 45.46875 74.226562 L 45.425781 74.28125 L 45.394531 74.332031 L 45.363281 74.375 L 45.328125 74.429688 L 45.296875 74.484375 L 45.253906 74.539062 L 45.21875 74.59375 L 45.15625 74.703125 L 45.121094 74.757812 L 45.089844 74.8125 L 45.058594 74.863281 L 45.023438 74.933594 L 44.992188 74.984375 L 44.960938 75.050781 L 44.925781 75.105469 L 44.894531 75.167969 L 44.859375 75.226562 L 44.828125 75.289062 L 44.796875 75.355469 L 44.761719 75.421875 L 44.742188 75.484375 L 44.707031 75.550781 L 44.675781 75.617188 L 44.644531 75.679688 L 44.609375 75.746094 L 44.589844 75.824219 L 44.558594 75.886719 L 44.527344 75.964844 L 44.492188 76.039062 L 45.328125 76.363281 L 45.308594 76.417969 L 45.285156 76.472656 L 45.261719 76.53125 L 45.242188 76.582031 L 45.21875 76.636719 L 45.210938 76.691406 L 45.1875 76.746094 L 45.167969 76.800781 L 45.144531 76.855469 L 45.132812 76.921875 L 45.113281 76.972656 L 45.097656 77.027344 L 45.078125 77.09375 L 45.070312 77.148438 L 45.046875 77.203125 L 45.035156 77.265625 L 45.023438 77.320312 L 45.015625 77.386719 L 44.992188 77.441406 L 44.980469 77.507812 L 44.972656 77.570312 L 44.949219 77.703125 L 44.925781 77.765625 L 44.917969 77.832031 L 44.902344 77.898438 L 44.894531 77.960938 L 44.871094 78.09375 L 44.859375 78.171875 L 44.851562 78.234375 L 44.851562 78.3125 L 43.992188 78.214844 L 43.980469 78.277344 L 43.980469 78.34375 L 43.96875 78.410156 L 43.96875 78.527344 L 43.960938 78.59375 L 43.960938 79.796875 L 43.96875 79.863281 L 43.96875 79.984375 L 43.980469 80.050781 L 43.980469 80.113281 L 43.992188 80.179688 L 44.851562 80.082031 L 44.851562 80.15625 L 44.859375 80.222656 L 44.871094 80.300781 L 44.882812 80.363281 L 44.894531 80.429688 L 44.902344 80.496094 L 44.917969 80.558594 L 44.925781 80.625 L 44.949219 80.691406 L 44.960938 80.753906 L 44.972656 80.820312 L 44.980469 80.886719 L 44.992188 80.949219 L 45.015625 81.003906 L 45.023438 81.070312 L 45.035156 81.125 L 45.046875 81.1875 L 45.070312 81.242188 L 45.078125 81.296875 L 45.097656 81.363281 L 45.113281 81.417969 L 45.132812 81.472656 L 45.144531 81.535156 L 45.167969 81.59375 L 45.1875 81.648438 L 45.210938 81.699219 L 45.21875 81.753906 L 45.242188 81.808594 L 45.261719 81.863281 L 45.308594 81.972656 L 45.328125 82.027344 L 44.492188 82.351562 L 44.527344 82.429688 L 44.558594 82.503906 L 44.589844 82.570312 L 44.609375 82.644531 L 44.644531 82.710938 L 44.675781 82.777344 L 44.707031 82.839844 L 44.742188 82.90625 L 44.761719 82.972656 L 44.796875 83.039062 L 44.828125 83.101562 L 44.859375 83.167969 L 44.894531 83.222656 L 44.925781 83.289062 L 44.960938 83.339844 L 44.992188 83.40625 L 45.023438 83.460938 L 45.058594 83.527344 L 45.121094 83.636719 L 45.15625 83.6875 L 45.21875 83.796875 L 45.253906 83.851562 L 45.296875 83.90625 L 45.328125 83.960938 L 45.363281 84.015625 L 45.394531 84.058594 L 45.425781 84.113281 L 45.46875 84.167969 L 45.503906 84.210938 L 45.535156 84.265625 L 46.265625 83.730469 L 46.304688 83.785156 L 46.351562 83.839844 L 46.382812 83.894531 L 46.425781 83.949219 L 46.472656 84.003906 L 46.515625 84.058594 L 46.558594 84.101562 L 46.601562 84.15625 L 46.632812 84.199219 L 46.675781 84.253906 L 46.765625 84.34375 L 46.808594 84.394531 L 46.851562 84.441406 L 46.882812 84.480469 L 46.925781 84.523438 L 46.96875 84.558594 L 47.015625 84.601562 L 47.058594 84.644531 L 47.089844 84.6875 L 47.132812 84.71875 L 47.175781 84.765625 L 47.21875 84.796875 L 47.339844 84.917969 L 47.382812 84.949219 L 47.425781 84.984375 L 47.472656 85.027344 L 47.503906 85.058594 L 47.546875 85.089844 L 47.589844 85.125 L 47.015625 85.828125 L 47.078125 85.871094 L 47.132812 85.925781 L 47.199219 85.96875 L 47.261719 86.023438 L 47.316406 86.070312 L 47.382812 86.113281 L 47.4375 86.15625 L 47.503906 86.199219 L 47.558594 86.242188 L 47.625 86.285156 L 47.6875 86.320312 L 47.742188 86.363281 L 47.808594 86.40625 L 47.875 86.4375 L 47.925781 86.480469 L 47.992188 86.515625 L 48.058594 86.558594 L 48.113281 86.589844 L 48.175781 86.625 L 48.242188 86.65625 L 48.308594 86.699219 L 48.363281 86.730469 L 48.425781 86.765625 L 48.558594 86.828125 L 48.621094 86.863281 L 48.753906 86.925781 L 48.820312 86.960938 L 48.882812 86.980469 L 48.949219 87.015625 L 49.015625 87.046875 L 49.382812 86.1875 L 49.4375 86.222656 L 49.503906 86.242188 L 49.570312 86.277344 L 49.632812 86.296875 L 49.6875 86.320312 L 49.753906 86.339844 L 49.808594 86.363281 L 49.875 86.382812 L 49.929688 86.40625 L 49.980469 86.429688 L 50.046875 86.4375 L 50.101562 86.460938 L 50.15625 86.472656 L 50.222656 86.492188 L 50.277344 86.503906 L 50.332031 86.527344 L 50.394531 86.535156 L 50.449219 86.558594 L 50.503906 86.570312 L 50.570312 86.582031 L 50.625 86.589844 L 50.6875 86.601562 L 50.742188 86.625 L 50.808594 86.632812 L 50.863281 86.644531 L 50.925781 86.65625 L 50.992188 86.667969 L 51.046875 86.675781 L 51.113281 86.6875 L 51.175781 86.699219 L 51.242188 86.710938 L 51.320312 86.71875 L 51.191406 87.632812 L 51.265625 87.644531 L 51.332031 87.65625 L 51.394531 87.664062 L 51.460938 87.664062 L 51.539062 87.675781 L 51.601562 87.6875 L 51.667969 87.6875 L 51.734375 87.699219 L 51.796875 87.699219 L 51.863281 87.710938 L 52.058594 87.710938 L 52.125 87.722656 L 52.636719 87.722656 L 52.691406 87.710938 L 52.820312 87.710938 L 52.886719 87.699219 L 52.949219 87.699219 L 53.015625 87.6875 L 53.082031 87.6875 L 53.144531 87.675781 L 53.210938 87.664062 L 53.277344 87.664062 L 53.179688 86.71875 L 53.242188 86.710938 L 53.320312 86.699219 L 53.386719 86.6875 L 53.453125 86.6875 L 53.527344 86.675781 L 53.589844 86.65625 L 53.667969 86.644531 L 53.730469 86.632812 L 53.808594 86.625 L 53.875 86.613281 L 53.941406 86.589844 L 54.015625 86.582031 L 54.082031 86.558594 L 54.144531 86.546875 L 54.210938 86.527344 L 54.289062 86.503906 L 54.351562 86.492188 L 54.417969 86.472656 L 54.484375 86.449219 L 54.546875 86.429688 L 54.679688 86.382812 L 54.746094 86.363281 L 54.808594 86.339844 L 54.875 86.320312 L 54.9375 86.285156 L 55.003906 86.261719 L 55.058594 86.242188 L 55.125 86.210938 L 55.191406 86.1875 L 55.246094 86.15625 L 55.308594 86.136719 L 55.679688 87.003906 L 55.746094 86.980469 L 55.808594 86.949219 L 55.863281 86.917969 L 55.929688 86.894531 L 55.984375 86.863281 L 56.046875 86.828125 L 56.105469 86.808594 L 56.15625 86.777344 L 56.222656 86.742188 L 56.277344 86.710938 L 56.332031 86.6875 L 56.382812 86.65625 L 56.441406 86.625 L 56.496094 86.589844 L 56.558594 86.558594 L 56.613281 86.527344 L 56.65625 86.492188 L 56.765625 86.429688 L 56.820312 86.394531 L 56.929688 86.332031 L 56.972656 86.296875 L 57.027344 86.261719 L 57.070312 86.222656 L 57.125 86.1875 L 57.167969 86.15625 L 57.222656 86.121094 L 57.269531 86.082031 L 57.320312 86.046875 L 57.367188 86.015625 L 57.410156 85.96875 L 56.832031 85.210938 L 56.886719 85.179688 L 56.929688 85.132812 L 56.984375 85.089844 L 57.039062 85.058594 L 57.09375 85.015625 L 57.191406 84.917969 L 57.246094 84.875 L 57.296875 84.832031 L 57.394531 84.734375 L 57.449219 84.6875 L 57.503906 84.636719 L 57.546875 84.582031 L 57.605469 84.539062 L 57.660156 84.480469 L 57.703125 84.425781 L 57.800781 84.328125 L 57.84375 84.273438 L 57.898438 84.222656 L 57.984375 84.113281 L 58.027344 84.070312 L 58.113281 83.960938 L 58.148438 83.90625 L 58.191406 83.863281 L 58.222656 83.808594 L 58.265625 83.765625 L 58.300781 83.710938 L 58.332031 83.667969 L 59.09375 84.230469 L 59.136719 84.179688 L 59.167969 84.125 L 59.214844 84.078125 L 59.246094 84.027344 L 59.277344 83.972656 L 59.320312 83.917969 L 59.355469 83.863281 L 59.386719 83.808594 L 59.429688 83.742188 L 59.460938 83.6875 L 59.496094 83.636719 L 59.527344 83.570312 L 59.558594 83.515625 L 59.59375 83.460938 L 59.625 83.394531 L 59.65625 83.339844 L 59.691406 83.273438 L 59.722656 83.222656 L 59.757812 83.15625 L 59.789062 83.101562 L 59.820312 83.039062 L 59.84375 82.980469 L 59.875 82.917969 L 59.898438 82.863281 L 59.929688 82.800781 L 59.953125 82.742188 L 59.984375 82.6875 L 60.003906 82.625 L 60.027344 82.570312 L 60.046875 82.515625 L 60.074219 82.460938 L 60.09375 82.40625 L 59.214844 82.050781 L 59.246094 81.984375 L 59.265625 81.917969 L 59.289062 81.851562 L 59.3125 81.789062 L 59.332031 81.722656 L 59.355469 81.648438 L 59.375 81.582031 L 59.398438 81.515625 L 59.417969 81.453125 L 59.441406 81.386719 L 59.460938 81.320312 L 59.472656 81.242188 L 59.496094 81.179688 L 59.515625 81.113281 L 59.527344 81.046875 L 59.550781 80.984375 L 59.558594 80.917969 L 59.570312 80.851562 L 59.59375 80.789062 L 59.605469 80.722656 L 59.613281 80.65625 L 59.625 80.59375 L 59.636719 80.527344 L 59.644531 80.460938 L 59.65625 80.398438 L 59.65625 80.328125 L 59.667969 80.277344 L 59.679688 80.210938 L 59.679688 80.148438 L 59.691406 80.082031 L 59.691406 79.960938 L 60.625 80.050781 L 60.636719 79.984375 L 60.636719 79.929688 L 60.648438 79.863281 L 60.648438 79.796875 L 60.660156 79.734375 L 60.660156 79.210938 L 60.65625 79.195312 L 60.660156 79.179688 L 60.660156 78.660156 L 60.648438 78.59375 L 60.648438 78.527344 L 60.636719 78.464844 L 60.636719 78.410156 L 60.625 78.34375 L 59.691406 78.429688 L 59.691406 78.3125 L 59.679688 78.246094 L 59.679688 78.179688 L 59.667969 78.117188 L 59.65625 78.0625 L 59.65625 77.996094 L 59.644531 77.929688 L 59.636719 77.863281 L 59.625 77.800781 L 59.613281 77.734375 L 59.605469 77.667969 L 59.59375 77.605469 L 59.570312 77.539062 L 59.558594 77.472656 L 59.550781 77.410156 L 59.527344 77.34375 L 59.515625 77.277344 L 59.496094 77.214844 L 59.472656 77.148438 L 59.460938 77.070312 L 59.441406 77.007812 L 59.417969 76.941406 L 59.398438 76.875 L 59.375 76.808594 L 59.355469 76.746094 L 59.332031 76.671875 L 59.3125 76.605469 L 59.265625 76.472656 L 59.246094 76.410156 L 59.214844 76.34375 L 60.09375 75.984375 L 60.074219 75.929688 L 60.046875 75.875 L 60.027344 75.824219 L 60.003906 75.769531 L 59.984375 75.703125 L 59.953125 75.648438 L 59.929688 75.59375 L 59.898438 75.527344 L 59.875 75.476562 L 59.84375 75.410156 L 59.820312 75.355469 L 59.789062 75.289062 L 59.757812 75.234375 L 59.722656 75.167969 L 59.691406 75.117188 L 59.65625 75.050781 L 59.625 74.996094 L 59.59375 74.933594 L 59.558594 74.875 L 59.527344 74.820312 L 59.496094 74.757812 L 59.460938 74.703125 L 59.429688 74.648438 L 59.386719 74.582031 L 59.355469 74.527344 L 59.320312 74.472656 L 59.277344 74.421875 L 59.214844 74.3125 L 59.167969 74.269531 L 59.136719 74.214844 L 59.09375 74.160156 L 58.332031 74.722656 L 58.300781 74.679688 L 58.265625 74.628906 L 58.222656 74.582031 L 58.191406 74.527344 L 58.148438 74.484375 L 58.113281 74.429688 L 58.070312 74.375 L 58.027344 74.324219 L 57.984375 74.28125 L 57.898438 74.171875 L 57.84375 74.117188 L 57.800781 74.0625 L 57.703125 73.964844 L 57.660156 73.910156 L 57.605469 73.855469 L 57.546875 73.8125 L 57.503906 73.757812 L 57.449219 73.703125 L 57.394531 73.660156 L 57.296875 73.5625 L 57.246094 73.519531 L 57.191406 73.472656 L 57.136719 73.421875 L 57.09375 73.375 L 57.039062 73.332031 L 56.984375 73.300781 L 56.929688 73.257812 L 56.886719 73.214844 L 56.832031 73.179688 L 57.410156 72.421875 L 57.367188 72.378906 L 57.320312 72.34375 L 57.269531 72.3125 L 57.222656 72.269531 L 57.167969 72.238281 L 57.125 72.203125 L 57.070312 72.171875 L 57.027344 72.128906 L 56.972656 72.097656 L 56.929688 72.0625 L 56.875 72.027344 L 56.820312 72 L 56.710938 71.929688 L 56.65625 71.898438 L 56.613281 71.867188 L 56.558594 71.832031 L 56.496094 71.800781 L 56.441406 71.769531 L 56.382812 71.734375 L 56.332031 71.703125 L 56.277344 71.683594 L 56.222656 71.648438 L 56.15625 71.617188 L 56.105469 71.582031 L 56.046875 71.5625 L 55.984375 71.53125 L 55.929688 71.496094 L 55.863281 71.476562 L 55.808594 71.441406 L 55.746094 71.410156 L 55.679688 71.386719 L 55.308594 72.257812 L 55.246094 72.238281 L 55.191406 72.203125 L 55.125 72.183594 L 55.058594 72.148438 L 55.003906 72.128906 L 54.9375 72.105469 L 54.875 72.074219 L 54.808594 72.050781 L 54.746094 72.027344 L 54.679688 72.007812 L 54.613281 71.984375 L 54.546875 71.964844 L 54.484375 71.945312 L 54.351562 71.898438 L 54.289062 71.886719 L 54.210938 71.867188 L 54.144531 71.847656 L 54.082031 71.832031 L 54.015625 71.8125 L 53.941406 71.800781 L 53.875 71.777344 L 53.808594 71.769531 L 53.730469 71.757812 L 53.667969 71.75 L 53.589844 71.734375 L 53.527344 71.714844 L 53.453125 71.703125 L 53.386719 71.703125 L 53.320312 71.691406 L 53.242188 71.683594 L 53.179688 71.671875 L 53.277344 70.726562 L 53.210938 70.726562 L 53.144531 70.714844 L 53.082031 70.703125 L 53.015625 70.703125 L 52.949219 70.695312 L 52.886719 70.695312 L 52.820312 70.679688 L 52.691406 70.679688 L 52.636719 70.671875 Z M 52.300781 72.910156 L 52.648438 72.921875 L 52.980469 72.941406 L 53.320312 72.996094 L 53.65625 73.0625 L 53.996094 73.152344 L 54.320312 73.257812 L 54.644531 73.375 L 54.972656 73.519531 L 55.277344 73.683594 L 55.59375 73.867188 L 55.886719 74.0625 L 56.167969 74.289062 L 56.453125 74.519531 L 56.722656 74.777344 L 56.972656 75.0625 L 57.222656 75.355469 L 57.199219 75.355469 C 57.425781 75.648438 57.628906 75.957031 57.800781 76.289062 L 57.800781 76.277344 L 57.832031 76.355469 C 58.242188 77.167969 58.480469 78.082031 58.496094 79.046875 L 58.492188 79.046875 C 58.496094 79.097656 58.496094 79.144531 58.496094 79.195312 C 58.496094 79.246094 58.496094 79.296875 58.492188 79.34375 L 58.496094 79.34375 C 58.480469 80.3125 58.242188 81.222656 57.832031 82.035156 L 57.800781 82.113281 L 57.800781 82.105469 C 57.628906 82.433594 57.425781 82.746094 57.199219 83.039062 L 57.222656 83.039062 L 56.972656 83.332031 L 56.722656 83.613281 L 56.453125 83.875 L 56.167969 84.101562 L 55.886719 84.328125 L 55.59375 84.523438 L 55.277344 84.710938 L 54.972656 84.875 L 54.644531 85.015625 L 54.320312 85.132812 L 53.996094 85.242188 L 53.65625 85.328125 L 53.320312 85.394531 L 52.980469 85.449219 L 52.648438 85.472656 L 52.300781 85.480469 L 51.960938 85.472656 L 51.613281 85.449219 L 51.273438 85.394531 L 50.9375 85.328125 L 50.601562 85.242188 L 50.277344 85.132812 L 49.949219 85.015625 L 49.621094 84.875 L 49.320312 84.699219 L 49.003906 84.523438 L 48.710938 84.320312 L 48.417969 84.101562 L 48.144531 83.851562 L 47.875 83.589844 L 47.609375 83.308594 L 47.375 83.015625 L 47.386719 83.015625 C 47.15625 82.71875 46.957031 82.402344 46.785156 82.066406 L 46.785156 82.082031 L 46.757812 82.007812 C 46.355469 81.203125 46.125 80.300781 46.105469 79.34375 L 46.109375 79.34375 C 46.109375 79.296875 46.105469 79.246094 46.105469 79.195312 C 46.105469 79.144531 46.109375 79.097656 46.109375 79.046875 L 46.105469 79.046875 C 46.125 78.089844 46.355469 77.1875 46.757812 76.382812 L 46.785156 76.3125 L 46.785156 76.324219 C 46.957031 75.992188 47.15625 75.675781 47.386719 75.378906 L 47.375 75.378906 L 47.609375 75.082031 L 47.875 74.800781 L 48.144531 74.539062 L 48.417969 74.289062 L 48.710938 74.074219 L 49.003906 73.867188 L 49.320312 73.691406 L 49.621094 73.519531 L 49.949219 73.375 L 50.277344 73.257812 L 50.601562 73.152344 L 50.9375 73.0625 L 51.273438 72.996094 L 51.613281 72.941406 L 51.960938 72.921875 Z M 52.300781 72.910156 " fill-opacity="1" fill-rule="nonzero"/></g></g></g><g transform="matrix(1, 0, 0, 1, 118, 34)"><g clip-path="url(#af42ac1c4f)"><g fill="#000000" fill-opacity="1"><g transform="translate(0.240915, 59.223593)"><g><path d="M 21.5625 0.796875 C 18.3125 0.796875 15.222656 0.289062 12.296875 -0.71875 C 9.367188 -1.726562 6.984375 -3.164062 5.140625 -5.03125 C 3.304688 -6.894531 2.390625 -9.128906 2.390625 -11.734375 C 2.390625 -13.328125 2.921875 -14.601562 3.984375 -15.5625 C 5.054688 -16.519531 6.363281 -17 7.90625 -17 C 9.875 -17 11.441406 -16.382812 12.609375 -15.15625 C 13.785156 -13.9375 14.375 -12.503906 14.375 -10.859375 C 14.375 -10.859375 14.171875 -10.789062 13.765625 -10.65625 C 13.367188 -10.519531 12.941406 -10.265625 12.484375 -9.890625 C 12.035156 -9.523438 11.734375 -8.914062 11.578125 -8.0625 C 11.523438 -7.851562 11.5 -7.640625 11.5 -7.421875 C 11.5 -7.210938 11.5 -7 11.5 -6.78125 C 11.5 -5.238281 11.988281 -3.988281 12.96875 -3.03125 C 13.957031 -2.070312 15.195312 -1.363281 16.6875 -0.90625 C 18.175781 -0.457031 19.640625 -0.234375 21.078125 -0.234375 C 22.191406 -0.234375 23.476562 -0.394531 24.9375 -0.71875 C 26.40625 -1.039062 27.6875 -1.640625 28.78125 -2.515625 C 29.875 -3.390625 30.421875 -4.628906 30.421875 -6.234375 C 30.421875 -7.929688 29.804688 -9.414062 28.578125 -10.6875 C 27.359375 -11.96875 25.765625 -13.140625 23.796875 -14.203125 C 21.828125 -15.273438 19.722656 -16.351562 17.484375 -17.4375 C 15.242188 -18.53125 13.113281 -19.703125 11.09375 -20.953125 C 9.070312 -22.203125 7.367188 -23.625 5.984375 -25.21875 C 4.597656 -26.820312 3.773438 -28.71875 3.515625 -30.90625 C 3.140625 -34.257812 3.707031 -37 5.21875 -39.125 C 6.738281 -41.25 8.867188 -42.816406 11.609375 -43.828125 C 14.359375 -44.835938 17.378906 -45.34375 20.671875 -45.34375 C 23.390625 -45.34375 25.945312 -44.890625 28.34375 -43.984375 C 30.738281 -43.085938 32.679688 -41.785156 34.171875 -40.078125 C 35.660156 -38.378906 36.40625 -36.332031 36.40625 -33.9375 C 36.40625 -32.550781 35.953125 -31.441406 35.046875 -30.609375 C 34.140625 -29.785156 33 -29.375 31.625 -29.375 C 29.914062 -29.375 28.539062 -29.921875 27.5 -31.015625 C 26.46875 -32.109375 25.953125 -33.347656 25.953125 -34.734375 C 25.953125 -34.734375 26.175781 -34.8125 26.625 -34.96875 C 27.082031 -35.132812 27.535156 -35.519531 27.984375 -36.125 C 28.429688 -36.738281 28.65625 -37.710938 28.65625 -39.046875 C 28.65625 -40.640625 27.9375 -41.898438 26.5 -42.828125 C 25.070312 -43.765625 23.1875 -44.234375 20.84375 -44.234375 C 18.707031 -44.234375 16.851562 -43.78125 15.28125 -42.875 C 13.71875 -41.96875 12.9375 -40.425781 12.9375 -38.25 C 12.9375 -36.4375 13.5625 -34.863281 14.8125 -33.53125 C 16.0625 -32.195312 17.671875 -31 19.640625 -29.9375 C 21.609375 -28.875 23.707031 -27.835938 25.9375 -26.828125 C 28.175781 -25.816406 30.320312 -24.75 32.375 -23.625 C 34.425781 -22.507812 36.144531 -21.234375 37.53125 -19.796875 C 38.914062 -18.359375 39.6875 -16.65625 39.84375 -14.6875 C 40.269531 -11.382812 39.671875 -8.578125 38.046875 -6.265625 C 36.421875 -3.953125 34.144531 -2.195312 31.21875 -1 C 28.289062 0.195312 25.070312 0.796875 21.5625 0.796875 Z M 21.5625 0.796875 "/></g></g></g><g fill="#000000" fill-opacity="1"><g transform="translate(39.439025, 59.223593)"><g><path d="M 17.71875 0 L 17.71875 -43.921875 C 14.632812 -43.921875 11.90625 -43.320312 9.53125 -42.125 C 7.164062 -40.925781 5.316406 -39.273438 3.984375 -37.171875 C 2.660156 -35.066406 2 -32.628906 2 -29.859375 L 1.203125 -29.859375 L 1.203125 -44.71875 L 46.3125 -44.71875 L 46.3125 -29.859375 L 45.515625 -29.859375 C 45.515625 -32.628906 44.847656 -35.066406 43.515625 -37.171875 C 42.179688 -39.273438 40.328125 -40.925781 37.953125 -42.125 C 35.585938 -43.320312 32.863281 -43.921875 29.78125 -43.921875 L 29.78125 0 Z M 17.71875 0 "/></g></g></g><g fill="#000000" fill-opacity="1"><g transform="translate(86.141869, 59.223593)"><g><path d="M 4 0 L 4 -44.71875 L 22.921875 -44.71875 C 26.109375 -44.71875 28.925781 -44.367188 31.375 -43.671875 C 33.820312 -42.984375 35.738281 -41.894531 37.125 -40.40625 C 38.507812 -38.914062 39.203125 -36.914062 39.203125 -34.40625 C 39.203125 -32.65625 38.550781 -31.003906 37.25 -29.453125 C 35.945312 -27.910156 34.320312 -26.660156 32.375 -25.703125 C 30.4375 -24.742188 28.453125 -24.265625 26.421875 -24.265625 C 29.085938 -24.265625 31.234375 -23.921875 32.859375 -23.234375 C 34.484375 -22.546875 35.800781 -21.535156 36.8125 -20.203125 C 37.820312 -18.867188 38.710938 -17.269531 39.484375 -15.40625 C 40.253906 -13.539062 41.09375 -11.410156 42 -9.015625 C 42.957031 -6.566406 43.875 -4.691406 44.75 -3.390625 C 45.625 -2.085938 46.34375 -1.195312 46.90625 -0.71875 C 47.46875 -0.238281 47.75 0 47.75 0 C 47.75 0 47.003906 0.09375 45.515625 0.28125 C 44.023438 0.46875 41.757812 0.375 38.71875 0 C 36.21875 -0.320312 34.300781 -1.132812 32.96875 -2.4375 C 31.644531 -3.738281 30.625 -5.296875 29.90625 -7.109375 C 29.1875 -8.921875 28.5625 -10.8125 28.03125 -12.78125 C 27.5 -14.75 26.832031 -16.597656 26.03125 -18.328125 C 25.226562 -20.054688 24.054688 -21.453125 22.515625 -22.515625 C 20.972656 -23.578125 18.816406 -24.109375 16.046875 -24.109375 L 16.046875 0 Z M 16.046875 -24.75 L 20.28125 -24.75 C 22.675781 -24.75 24.296875 -25.625 25.140625 -27.375 C 25.992188 -29.132812 26.421875 -31.398438 26.421875 -34.171875 C 26.421875 -36.992188 25.941406 -39.363281 24.984375 -41.28125 C 24.023438 -43.195312 22.351562 -44.15625 19.96875 -44.15625 L 16.046875 -44.15625 Z M 16.046875 -24.75 "/></g></g></g><g fill="#000000" fill-opacity="1"><g transform="translate(134.281727, 59.223593)"><g><path d="M 4 0 L 4 -44.71875 L 14.609375 -44.71875 L 14.609375 0 Z M 4 0 "/></g></g></g><g fill="#000000" fill-opacity="1"><g transform="translate(152.084598, 59.223593)"><g><path d="M 42.078125 1.28125 L 4.796875 -38.328125 L 4.796875 0 L 4 0 L 4 -44.71875 L 16.765625 -44.71875 L 41.28125 -17.71875 L 41.28125 -44.71875 L 42.078125 -44.71875 Z M 42.078125 1.28125 "/></g></g></g><g fill="#000000" fill-opacity="1"><g transform="translate(197.350428, 59.223593)"><g><path d="M 4.3125 0 L 20.359375 -18.4375 L 1.203125 -44.71875 L 17.8125 -44.71875 L 28.578125 -29.21875 L 42.078125 -44.71875 L 43.109375 -44.71875 L 29.0625 -28.5 L 48.859375 0 L 33.78125 0 L 20.84375 -17.8125 L 5.421875 0 Z M 4.3125 0 "/></g></g></g></g></g></svg>